<svg xmlns="http://www.w3.org/2000/svg" viewBox="0 0 235.06 203.29"><defs><style>.cls-1{isolation:isolate;}.cls-2{fill:#5dceff;}.cls-2,.cls-3{mix-blend-mode:multiply;}.cls-3{fill:#5d8eff;}.cls-4{fill:#fff;}</style></defs><g class="cls-1"><g id="Layer_1" data-name="Layer 1"><path class="cls-2" d="M206.79,130.38c-6.8,2.25-13.73,4-20.69,5.59-3.22.76-6.44,1.49-9.66,2.26-9.8,2.35-19.32,5.15-28.12,10.12-11.74,6.64-24.65,16.55-38.16,9.86-17.39-8.61-17.06-31.66-32.92-39.75-8.54-4.35-19.29-4.6-28.85-6.12a77.93,77.93,0,0,1-18.14-5.81c-5.44-2.46-10.49-5.45-13.47-8.55C5.58,86.36,6.26,61,23.18,52.84,39,45.26,58.1,49.52,76,52.85c4.09.76,8.12,1.48,12,2,29.67,3.9,38.06-16.69,63.38-23.58h0a59.57,59.57,0,0,1,7.66-1.55c10.6-1.45,25.18,1.16,32.58,10.14.33.39.64.8.95,1.22A21,21,0,0,1,194.34,44c7.5,15.62-2.45,33.56,8.81,48.37C207.36,97.89,234.62,121.2,206.79,130.38Z"/><path class="cls-3" d="M190.49,113.21c0,46.25-45.09,61.3-85,61.3-23,0-53.43-7.57-69.52-23.45L34.92,150c-11.49-12.12-14.71-28.87-.55-50.56C92,11.14,190.49-5.84,190.49,113.21Z"/><path class="cls-4" d="M56,131.08l-20,20L34.92,150l20-20A.76.76,0,0,1,56,131.08Z"/><path class="cls-4" d="M192.63,41.07c-3.92,3.88-9.09,9.1-14.09,14.17C173.26,60.59,168.2,65.79,165,69.05a.78.78,0,0,1-.55.23.74.74,0,0,1-.53-.22.77.77,0,0,1,0-1.08c.57-.58,6.81-7,13.84-14.13,4.8-4.88,10-10.09,13.92-14C192,40.24,192.32,40.65,192.63,41.07Z"/><path class="cls-3" d="M78.35,40.89c0,3.34-3.55,6-7.94,6s-7.93-2.71-7.93-6,3.55-6,7.93-6S78.35,37.55,78.35,40.89Z"/><path class="cls-3" d="M88.18,29.18a3.43,3.43,0,0,1-6.81,0,3.43,3.43,0,0,1,6.81,0Z"/><circle class="cls-3" cx="143.55" cy="184.33" r="6.61"/><path class="cls-3" d="M197.78,150.88a5.7,5.7,0,1,1-5.67-5.1A5.41,5.41,0,0,1,197.78,150.88Z"/><path class="cls-3" d="M183.8,158.06a2.54,2.54,0,1,1-2.46-1.89A2.23,2.23,0,0,1,183.8,158.06Z"/></g></g></svg>